<?xml version="1.0" standalone="no"?>
<!DOCTYPE svg PUBLIC "-//W3C//DTD SVG 1.1//EN" "http://www.w3.org/Graphics/SVG/1.1/DTD/svg11.dtd" >
<svg>
<metadata>
Created by FontForge 20090622 at Wed Jan 18 05:09:05 2017
 By deploy user
(c) The Foundry. The digitally encoded machine readable outline data for producing the typefaces licensed to you is copyrighted (C), 2002 by The Foundry, London. All Rights Reserved.
</metadata>
<defs>
<font id="FoundrySterling-Book" horiz-adv-x="593" >
  <font-face 
    font-family="FoundrySterling-Book"
    font-weight="400"
    font-stretch="normal"
    units-per-em="1000"
    panose-1="0 0 4 0 0 0 0 0 0 0"
    ascent="800"
    descent="-200"
    x-height="480"
    cap-height="667"
    bbox="-78 -227 1026 913"
    underline-thickness="50"
    underline-position="-75"
    unicode-range="U+0020-U+F002"
  />
<missing-glyph horiz-adv-x="500" 
d="M63 0v740h375v-740h-375zM125 63h250v615h-250v-615z" />
    <glyph glyph-name=".notdef" horiz-adv-x="500" 
d="M63 0v740h375v-740h-375zM125 63h250v615h-250v-615z" />
    <glyph glyph-name=".null" horiz-adv-x="0" 
 />
    <glyph glyph-name="glyph2" horiz-adv-x="240" 
 />
    <glyph glyph-name="space" unicode=" " horiz-adv-x="240" 
 />
    <glyph glyph-name="exclam" unicode="!" horiz-adv-x="290" 
d="M182 667l-10 -505h-54l-13 505h77zM190 37q0 -19 -13 -32t-32 -13t-32 13t-13 32t13 32t32 13t32 -13t13 -32z" />
    <glyph glyph-name="quotedbl" unicode="&#x22;" horiz-adv-x="298" 
d="M243 667l-6 -229h-55l-7 229h68zM122 667l-6 -229h-55l-6 229h67z" />
    <glyph glyph-name="numbersign" unicode="#" horiz-adv-x="566" 
d="M496 517l-7 -53h-91l-17 -118h91l-7 -54h-91l-24 -165h-58l24 165h-99l-24 -165h-58l24 165h-89l7 54h89l17 118h-89l7 53h89l21 150h58l-21 -150h99l21 150h58l-21 -150h91zM340 464h-99l-17 -118h99z" />
    <glyph glyph-name="dollar" unicode="$" 
d="M498 185q0 -80 -48.5 -130t-128.5 -60v-95h-57v93q-103 6 -184 70l34 46q33 -22 50 -30q51 -26 100 -30v279l-63 27q-37 19 -61 42q-42 40 -42 106q0 69 50 116q47 42 116 49v76h57v-74q101 -5 169 -69l-34 -39q-36 26 -41 29q-45 24 -94 26v-246q51 -21 54 -22
q46 -22 70 -45q53 -50 53 -119zM264 394v219q-40 -7 -69 -33q-35 -31 -35 -76q0 -38 30 -67q24 -23 74 -43zM432 180q0 45 -35 78q-20 19 -76 47v-253q48 9 77 39q34 35 34 89z" />
    <glyph glyph-name="percent" unicode="%" horiz-adv-x="731" 
d="M686 166q0 -84 -39 -131.5t-108 -47.5q-66 0 -105 45t-39 123q0 87 39 135.5t109 48.5q65 0 104 -47t39 -126zM624 670l-475 -706l-44 29l476 708zM336 507q0 -84 -39 -131.5t-108 -47.5q-66 0 -105 45t-39 123q0 87 39 135.5t109 48.5q65 0 104 -47t39 -126zM630 166
q0 60 -23 94t-64 34q-92 0 -92 -137q0 -125 88 -125q91 0 91 134zM280 507q0 60 -23 94t-64 34q-92 0 -92 -137q0 -125 88 -125q91 0 91 134z" />
    <glyph glyph-name="ampersand" unicode="&#x26;" horiz-adv-x="665" 
d="M617 0h-7q-51 0 -85 16t-70 55q-85 -83 -199 -83q-86 0 -143.5 56t-57.5 139q0 81 53 134q23 23 87 60q-39 54 -52 79q-21 39 -21 74q0 65 47.5 107t120.5 42q70 0 112.5 -37t42.5 -98q0 -71 -56 -121q-29 -24 -102 -61l168 -200q21 24 39 72q23 63 23 128h58
q0 -76 -28 -153q-24 -63 -51 -93q35 -40 65 -54q22 -11 56 -11v-51zM380 540q0 41 -24.5 64.5t-66.5 23.5q-45 0 -74 -27t-29 -69q0 -47 67 -129q127 57 127 137zM416 113l-187 224q-110 -54 -110 -151q0 -60 42 -100t104 -39q83 1 151 66z" />
    <glyph glyph-name="quotesingle" unicode="'" horiz-adv-x="177" 
d="M122 667l-6 -229h-55l-6 229h67z" />
    <glyph glyph-name="parenleft" unicode="(" horiz-adv-x="361" 
d="M311 692q-165 -132 -165 -400q0 -127 35 -217q38 -100 125 -174l-33 -40q-198 141 -198 436q0 137 49 248q52 122 153 187z" />
    <glyph glyph-name="parenright" unicode=")" horiz-adv-x="361" 
d="M286 297q0 -295 -198 -436l-33 40q87 74 125 174q35 90 35 217q0 268 -165 400l34 40q101 -65 154 -187q48 -111 48 -248z" />
    <glyph glyph-name="asterisk" unicode="*" horiz-adv-x="446" 
d="M391 539l-123 -38l80 -109l-50 -35l-75 112l-75 -112l-50 35l80 109l-123 38l19 57l118 -46v117h62v-117l118 46z" />
    <glyph glyph-name="plus" unicode="+" 
d="M520 227h-197v-197h-53v197h-197v53h197v197h53v-197h197v-53z" />
    <glyph glyph-name="comma" unicode="," horiz-adv-x="236" 
d="M166 70q0 -111 -88 -199l-38 30q54 76 54 165v10h72v-6z" />
    <glyph glyph-name="hyphen" unicode="-" horiz-adv-x="490" 
d="M405 227h-320v53h320v-53z" />
    <glyph glyph-name="hyphen" unicode="&#x2010;" horiz-adv-x="490" 
d="M405 227h-320v53h320v-53z" />
    <glyph glyph-name="period" unicode="." horiz-adv-x="216" 
d="M153 37q0 -19 -13 -32t-32 -13t-32 13t-13 32t13 32t32 13t32 -13t13 -32z" />
    <glyph glyph-name="slash" unicode="/" horiz-adv-x="435" 
d="M398 667l-303 -811l-58 22l304 811z" />
    <glyph glyph-name="zero" unicode="0" 
d="M542 334q0 -163 -64 -254.5t-182 -91.5t-181.5 91.5t-63.5 257.5q0 159 64 251t178 92q119 0 184 -91.5t65 -254.5zM476 333q0 141 -45.5 217t-133.5 76q-180 0 -180 -297q0 -137 46 -212t132 -75q89 0 135 75.5t46 215.5z" />
    <glyph glyph-name="one" unicode="1" 
d="M361 0h-63v592l-164 -111l-34 47l208 139h53v-667z" />
    <glyph glyph-name="two" unicode="2" 
d="M493 0h-405v53l52 49l84 82q109 109 150 169q47 69 47 131q0 67 -37 103t-104 36q-52 0 -107 -29q-34 -18 -48 -32l-35 38q13 18 56 43q67 37 142 37q91 0 145 -51.5t54 -139.5q0 -76 -57 -159q-37 -53 -127 -143l-132 -131h322v-56z" />
    <glyph glyph-name="three" unicode="3" 
d="M490 184q0 -90 -63 -143t-159 -53q-83 0 -144 32q-35 18 -52 39l34 41l41 -28q51 -27 110 -27q77 0 122.5 36t45.5 99q0 50 -37 88q-31 31 -82 41q-31 6 -94 6h-10v55h17q59 0 89 7q45 10 76 41t31 82q0 55 -38 89t-104 34q-55 0 -108 -29q-31 -16 -47 -32l-34 40
q9 15 55 41q66 37 139 37q93 0 147 -49t54 -129q0 -59 -34 -103q-36 -48 -97 -56q65 -6 103.5 -50.5t38.5 -108.5z" />
    <glyph glyph-name="four" unicode="4" 
d="M530 162h-91v-162h-62v162h-321v52l319 453h64v-451h91v-54zM377 216v362l-254 -362h254z" />
    <glyph glyph-name="five" unicode="5" 
d="M500 211q0 -101 -64 -162t-165 -61q-78 0 -138 31q-36 18 -49 35l32 43q65 -52 148 -52q79 0 125 43t46 118q0 68 -42 112q-46 48 -127 48q-68 0 -119 -32l-30 19v314h357v-54h-295v-211q53 21 101 21q104 0 162 -58.5t58 -153.5z" />
    <glyph glyph-name="six" unicode="6" 
d="M527 218q0 -99 -60 -164.5t-157 -65.5q-124 0 -185 106q-49 85 -49 219q0 153 52 248q65 119 202 119q72 0 131 -30q38 -20 48 -35l-33 -42q-65 52 -138 52q-110 0 -161 -98q-41 -78 -41 -204q0 -12 1 -18v-9q14 64 69 102q51 35 120 35q94 0 149 -61q52 -59 52 -154z
M466 215q0 73 -36 117q-39 48 -110 48q-72 0 -117 -51t-45 -124q0 -69 43.5 -116.5t111.5 -47.5q70 0 113 53q40 49 40 121z" />
    <glyph glyph-name="seven" unicode="7" 
d="M521 616l-275 -616h-72l280 610h-374v57h441v-51z" />
    <glyph glyph-name="eight" unicode="8" 
d="M524 176q0 -85 -61 -136.5t-162 -51.5q-106 0 -169 50t-63 136q0 71 41 119.5t107 50.5q-61 12 -95 55t-34 102q0 79 57.5 129t149.5 50q94 0 152 -48t58 -127q0 -60 -32 -103q-34 -46 -93 -58q70 -8 107 -52.5t37 -115.5zM441 501q0 59 -39.5 94.5t-103.5 35.5
q-65 0 -105 -35.5t-40 -93.5t41.5 -96t103.5 -38q61 0 102 37.5t41 95.5zM458 179q0 65 -43.5 102.5t-117.5 37.5q-73 0 -117.5 -38t-44.5 -101q0 -67 44 -105t123 -38q72 0 114 38t42 104z" />
    <glyph glyph-name="nine" unicode="9" 
d="M517 355q0 -153 -52 -248q-65 -119 -202 -119q-72 0 -131 30q-38 20 -48 35l33 42q65 -52 138 -52q110 0 161 99q41 77 41 203v18q-1 5 -1 9q-14 -64 -69 -101q-51 -36 -120 -36q-94 0 -147.5 60t-53.5 155q0 99 60 164.5t157 65.5q124 0 185 -106q49 -85 49 -219z
M435 463q0 69 -43.5 116.5t-111.5 47.5q-70 0 -113 -53q-40 -49 -40 -121q0 -73 36 -117q39 -48 110 -48q72 0 117 51t45 124z" />
    <glyph glyph-name="colon" unicode=":" horiz-adv-x="216" 
d="M153 447q0 -19 -13 -32t-32 -13t-32 13t-13 32t13 32t32 13t32 -13t13 -32zM153 37q0 -19 -13 -32t-32 -13t-32 13t-13 32t13 32t32 13t32 -13t13 -32z" />
    <glyph glyph-name="semicolon" unicode=";" horiz-adv-x="236" 
d="M175 447q0 -19 -13 -32t-32 -13t-32 13t-13 32t13 32t32 13t32 -13t13 -32zM166 70q0 -111 -88 -199l-38 30q54 76 54 165v10h72v-6z" />
    <glyph glyph-name="less" unicode="&#x3c;" 
d="M533 64l-22 -48l-451 218v40l450 218l23 -48l-400 -191z" />
    <glyph glyph-name="equal" unicode="=" 
d="M534 290h-475v53h475v-53zM534 164h-475v53h475v-53z" />
    <glyph glyph-name="greater" unicode="&#x3e;" 
d="M533 234l-451 -218l-22 48l400 189l-400 191l23 48l450 -218v-40z" />
    <glyph glyph-name="question" unicode="?" horiz-adv-x="493" 
d="M421 496q0 -77 -58 -135q-17 -17 -59 -43t-54 -38q-17 -17 -20 -42q-2 -12 -2 -76h-54q-2 38 -2 56q0 39 3 52q4 19 20 35t54.5 43t57.5 46q45 45 45 102q0 56 -36.5 91.5t-94.5 35.5q-69 0 -138 -46l-28 44q9 12 54 31q63 28 127 28q84 0 134.5 -50.5t50.5 -133.5z
M246 37q0 -19 -13 -32t-32 -13t-32 13t-13 32t13 32t32 13t32 -13t13 -32z" />
    <glyph glyph-name="at" unicode="@" horiz-adv-x="776" 
d="M728 413q0 -108 -72.5 -174.5t-189.5 -66.5q-1 0 -21 2l8 46q-60 -48 -117 -48q-49 0 -79.5 34t-30.5 89q0 92 63.5 154.5t157.5 62.5q58 0 105 -20l-52 -272q75 6 125.5 56.5t50.5 135.5q0 94 -70.5 153.5t-182.5 59.5q-138 0 -228 -90.5t-90 -229.5q0 -120 78 -194
q75 -72 194 -72q79 0 151 30l58 32l29 -41q-44 -29 -63 -38q-80 -36 -180 -36q-141 0 -232.5 89.5t-91.5 231.5q0 158 107.5 263t268.5 105q132 0 218 -74t86 -188zM489 460q-28 6 -42 6q-67 0 -116 -50t-49 -118q0 -32 19 -53.5t48 -21.5q52 0 106 54z" />
    <glyph glyph-name="A" unicode="A" horiz-adv-x="581" 
d="M570 0h-68l-68 191h-291l-68 -191h-64l243 667h72zM415 246l-127 354l-126 -354h253z" />
    <glyph glyph-name="B" unicode="B" horiz-adv-x="556" 
d="M501 189q0 -78 -50 -128q-44 -44 -116 -55q-39 -6 -166 -6h-83v667h168q63 0 95 -7q47 -11 78 -42q52 -52 52 -129q0 -57 -31 -97t-82 -50q135 -21 135 -153zM414 492q0 52 -33 85q-28 28 -82 35q-22 3 -99 3h-50v-251h66q120 0 165 45q33 33 33 83zM436 187q0 49 -35 84
q-31 31 -92 38q-23 3 -109 3h-50v-259h73q72 0 106 8q44 10 75.5 41.5t31.5 84.5z" />
    <glyph glyph-name="C" unicode="C" horiz-adv-x="606" 
d="M582 52q-14 -15 -62 -35q-71 -29 -151 -29q-135 0 -222 89q-92 94 -92 251q0 162 96 260q90 92 228 92q75 0 137 -23q42 -16 58 -32l-29 -47q-60 43 -161 43q-112 0 -186 -76q-78 -79 -78 -209q0 -132 70 -210.5t187 -78.5q83 0 175 51z" />
    <glyph glyph-name="D" unicode="D" horiz-adv-x="674" 
d="M619 337q0 -156 -96 -252q-54 -54 -127 -72q-53 -13 -159 -13h-151v667h128q118 0 177 -13q80 -18 132 -70q96 -96 96 -247zM554 339q0 130 -79 209q-42 42 -102 55q-48 11 -157 11h-66v-561h91q86 0 130 10q63 15 108 60q75 75 75 216z" />
    <glyph glyph-name="E" unicode="E" horiz-adv-x="498" 
d="M446 0h-360v667h352v-54h-289v-237h271v-53h-271v-267h297v-56z" />
    <glyph glyph-name="F" unicode="F" horiz-adv-x="469" 
d="M429 613h-279v-237h261v-53h-261v-323h-64v667h343v-54z" />
    <glyph glyph-name="G" unicode="G" horiz-adv-x="660" 
d="M592 44q-18 -15 -60 -30q-73 -27 -161 -27q-138 0 -225 90q-91 93 -91 251q0 162 96 260q90 92 228 92q75 0 137 -23q42 -16 58 -32l-29 -47q-60 43 -161 43q-112 0 -186 -75q-78 -80 -78 -210q0 -132 69.5 -211.5t186.5 -79.5q63 0 113 16l40 16v195h-153v52h216v-280z
" />
    <glyph glyph-name="H" unicode="H" horiz-adv-x="637" 
d="M551 0h-64v324h-337v-324h-64v667h64v-289h337v289h64v-667z" />
    <glyph glyph-name="I" unicode="I" horiz-adv-x="236" 
d="M150 0h-64v667h64v-667z" />
    <glyph glyph-name="J" unicode="J" horiz-adv-x="358" 
d="M280 207q0 -72 -3 -95q-8 -53 -39 -84q-40 -40 -104 -40q-46 0 -89 18q-28 11 -37 20l25 47q51 -29 90 -29q65 0 84 52q9 24 9 85v486h64v-460z" />
    <glyph glyph-name="K" unicode="K" horiz-adv-x="539" 
d="M529 0h-80l-300 319v-319h-63v667h63v-314l292 314h73l-301 -327z" />
    <glyph glyph-name="L" unicode="L" horiz-adv-x="470" 
d="M437 0h-351v667h64v-611h287v-56z" />
    <glyph glyph-name="M" unicode="M" horiz-adv-x="874" 
d="M796 0h-66l-63 574l-207 -574h-53l-209 574l-61 -574h-59l76 667h72l212 -575l207 575h73z" />
    <glyph glyph-name="N" unicode="N" horiz-adv-x="634" 
d="M548 0h-73l-332 573l2 -573h-59v667h70l335 -578l-2 578h59v-667z" />
    <glyph glyph-name="O" unicode="O" horiz-adv-x="701" 
d="M646 336q0 -154 -83 -251t-216 -97q-126 0 -209 96t-83 244q0 155 83.5 253t216.5 98q127 0 209 -96t82 -247zM578 340q0 126 -64.5 205t-165.5 79q-102 0 -163.5 -79t-61.5 -209q0 -128 64.5 -210.5t163.5 -82.5q104 0 165.5 81t61.5 216z" />
    <glyph glyph-name="P" unicode="P" horiz-adv-x="540" 
d="M489 475q0 -88 -53 -141q-41 -41 -102 -52q-32 -6 -126 -6h-59v-276h-63v667h152q73 0 110 -8q54 -11 87 -44q54 -54 54 -140zM425 476q0 65 -41 106q-23 23 -67 29q-25 4 -85 4h-83v-287h55q77 0 104 4q48 7 75 34q42 42 42 110z" />
    <glyph glyph-name="Q" unicode="Q" horiz-adv-x="701" 
d="M646 336q0 -138 -67 -231q-74 -103 -205 -112q61 -81 206 -81q20 0 40 2t18 2l7 -47q-36 -9 -89 -9q-174 0 -258 135q-97 12 -166 97q-77 94 -77 236q0 155 83.5 253t216.5 98q127 0 209 -96t82 -247zM578 340q0 126 -64.5 205t-165.5 79q-102 0 -163.5 -79t-61.5 -209
q0 -128 64.5 -210.5t163.5 -82.5q104 0 165.5 81t61.5 216z" />
    <glyph glyph-name="R" unicode="R" horiz-adv-x="550" 
d="M524 0h-66l-76 171q-37 84 -67.5 105t-111.5 21h-54v-297h-63v667h137q83 0 116 -6q53 -10 87 -44q52 -52 52 -134q0 -70 -43 -115t-106 -51q29 -2 52 -25t50 -84zM415 487q0 56 -33 89q-28 28 -71 35q-21 4 -80 4h-82v-266h19q87 0 113 3q63 9 98.5 44.5t35.5 90.5z" />
    <glyph glyph-name="S" unicode="S" horiz-adv-x="516" 
d="M455 183q0 -87 -54 -140q-57 -56 -158 -56q-111 0 -194 71l33 46q86 -60 157 -60q72 0 111 36.5t39 97.5q0 44 -34 78q-29 29 -121 68.5t-127 74.5q-40 40 -40 109q0 75 54.5 123t142.5 48q113 0 183 -71l-34 -40q-67 56 -144 56q-62 0 -101 -32.5t-39 -82.5
q0 -40 28 -68t113 -64q91 -38 126 -66q59 -50 59 -128z" />
    <glyph glyph-name="T" unicode="T" horiz-adv-x="532" 
d="M500 613h-202v-613h-64v613h-202v54h468v-54z" />
    <glyph glyph-name="U" unicode="U" horiz-adv-x="617" 
d="M541 346q0 -136 -5 -172q-10 -79 -54 -123q-63 -63 -173 -63t-175 65q-41 41 -52 108q-6 36 -6 145v361h63v-422q0 -58 5 -83q8 -43 37 -72q47 -47 131 -47q77 0 120 43q33 33 41 82q5 33 5 146v353h63v-321z" />
    <glyph glyph-name="V" unicode="V" 
d="M569 667l-235 -667h-80l-230 667h68l204 -612l211 612h62z" />
    <glyph glyph-name="W" unicode="W" horiz-adv-x="885" 
d="M846 667l-165 -667h-88l-149 617l-152 -617h-88l-165 667h67l143 -615l150 615h94l149 -615l143 615h61z" />
    <glyph glyph-name="X" unicode="X" horiz-adv-x="558" 
d="M531 0h-74l-181 296l-180 -296h-69l213 347l-199 320h75l162 -270l161 270h70l-197 -321z" />
    <glyph glyph-name="Y" unicode="Y" horiz-adv-x="541" 
d="M515 667l-213 -404v-263h-63v263l-213 404h70l178 -342l176 342h65z" />
    <glyph glyph-name="Z" unicode="Z" horiz-adv-x="543" 
d="M496 0h-450v47l368 566h-348v54h422v-49l-365 -562h373v-56z" />
    <glyph glyph-name="bracketleft" unicode="[" horiz-adv-x="323" 
d="M286 -122h-200v789h200v-53h-137v-683h137v-53z" />
    <glyph glyph-name="backslash" unicode="\" horiz-adv-x="435" 
d="M398 -122l-58 -22l-303 811l57 22z" />
    <glyph glyph-name="bracketright" unicode="]" horiz-adv-x="323" 
d="M237 -122h-200v53h137v683h-137v53h200v-789z" />
    <glyph glyph-name="asciicircum" unicode="^" 
d="M515 253h-65l-154 337l-154 -337h-64l196 414h46z" />
    <glyph glyph-name="underscore" unicode="_" horiz-adv-x="470" 
d="M472 -122h-474v53h474v-53z" />
    <glyph glyph-name="grave" unicode="`" horiz-adv-x="308" 
d="M271 585l-20 -39l-214 80l27 59z" />
    <glyph glyph-name="a" unicode="a" horiz-adv-x="464" 
d="M401 0h-55v36l-46 -24q-54 -22 -107 -22q-69 0 -111.5 40.5t-42.5 105.5q0 157 277 157h25v18q0 76 -24 101q-27 28 -91 28q-66 0 -133 -38l-25 42q11 11 47 26q55 23 118 23q84 0 130 -46q26 -26 33 -64q5 -23 5 -74v-309zM341 82v162h-27q-213 0 -213 -109
q0 -39 25 -64q28 -28 81 -28q50 0 134 39z" />
    <glyph glyph-name="b" unicode="b" horiz-adv-x="518" 
d="M475 248q0 -115 -68 -186.5t-175 -71.5q-75 0 -162 32v698h60v-271q54 43 134 43q96 0 153.5 -66.5t57.5 -177.5zM413 246q0 87 -42.5 140t-112.5 53q-62 0 -128 -47v-332q57 -17 104 -17q82 0 130.5 55.5t48.5 147.5z" />
    <glyph glyph-name="c" unicode="c" horiz-adv-x="464" 
d="M434 38q-8 -10 -49 -26q-57 -22 -115 -22q-101 0 -164 65t-63 175q0 116 66.5 189t172.5 73q53 0 103 -22q31 -14 42 -25l-27 -42q-58 35 -121 35q-77 0 -125.5 -56.5t-48.5 -142.5q0 -87 47 -140t121 -53q61 0 135 37z" />
    <glyph glyph-name="d" unicode="d" horiz-adv-x="519" 
d="M449 0h-55v36q-57 -46 -140 -46q-95 0 -153 66.5t-58 175.5q0 115 66 187.5t170 72.5q64 0 109 -27v255h61v-720zM388 90v317q-56 32 -109 32q-78 0 -126 -57.5t-48 -151.5q0 -83 43.5 -135t111.5 -52q61 0 128 47z" />
    <glyph glyph-name="e" unicode="e" horiz-adv-x="494" 
d="M451 260q0 -2 -1 -14t-1 -18h-344q0 -82 43 -132t122 -50q61 0 139 39l27 -46q-6 -8 -49 -26q-60 -23 -122 -23q-103 0 -162.5 68t-59.5 179q0 116 59.5 185.5t159.5 69.5q85 0 136 -60q53 -63 53 -172zM390 279q0 63 -28 108q-35 54 -99 54t-108 -44t-48 -118h283z" />
    <glyph glyph-name="f" unicode="f" horiz-adv-x="352" 
d="M357 701l-24 -42q-30 20 -71 20q-42 0 -66 -24q-28 -28 -28 -98v-77h154v-49h-154v-431h-60v431h-85v49h85v77q0 92 45 137q38 38 103 38q64 0 101 -31z" />
    <glyph glyph-name="g" unicode="g" horiz-adv-x="519" 
d="M449 -7q0 -121 -45 -167q-52 -53 -156 -53q-68 0 -127 28q-36 16 -51 31l27 42q42 -24 45 -26q51 -22 102 -22q77 0 113 37q21 21 27 52q4 24 4 88v37q-74 -41 -140 -41q-90 0 -147.5 66.5t-57.5 170.5q0 111 67.5 183.5t171.5 72.5q65 0 167 -41v-458zM388 98v318
q-54 23 -109 23q-78 0 -126 -56t-48 -146q0 -83 41 -134t108 -51q54 0 134 46z" />
    <glyph glyph-name="h" unicode="h" horiz-adv-x="503" 
d="M440 0h-60v280q0 57 -3 78q-6 35 -25 54q-27 27 -75 27q-45 0 -99 -23q-40 -16 -48 -24v-392h-60v720h60v-274q9 9 48 25q55 21 105 21q73 0 110 -37q32 -32 42 -78q5 -25 5 -88v-289z" />
    <glyph glyph-name="i" unicode="i" horiz-adv-x="200" 
d="M140 642q0 -16 -11.5 -28t-28.5 -12q-16 0 -28 12t-12 28q0 17 12 28.5t28 11.5q17 0 28.5 -11.5t11.5 -28.5zM130 0h-60v480h60v-480z" />
    <glyph glyph-name="j" unicode="j" horiz-adv-x="200" 
d="M140 642q0 -16 -11.5 -28t-28.5 -12q-16 0 -28 12t-12 28q0 17 12 28.5t28 11.5q17 0 28.5 -11.5t11.5 -28.5zM130 -56q0 -93 -39 -132t-103 -39q-35 0 -66 14l14 47q27 -9 51 -9q50 0 69 34q14 26 14 78v543h60v-536z" />
    <glyph glyph-name="k" unicode="k" horiz-adv-x="468" 
d="M453 0h-79l-244 254v-254h-60v720h60v-453l224 213h79l-236 -218z" />
    <glyph glyph-name="l" unicode="l" horiz-adv-x="200" 
d="M130 0h-60v720h60v-720z" />
    <glyph glyph-name="m" unicode="m" horiz-adv-x="789" 
d="M726 0h-60v286q0 98 -28 126q-25 25 -72 25q-71 0 -146 -44q9 -19 9 -114v-279h-60v263q0 72 -3 94q-5 38 -23 56q-25 25 -70 25q-74 0 -143 -46v-392h-60v480h57v-35q78 47 152 47q79 0 119 -56q91 56 174 56q67 0 107 -40q33 -33 42 -84q5 -30 5 -114v-254z" />
    <glyph glyph-name="n" unicode="n" horiz-adv-x="503" 
d="M440 0h-60v280q0 57 -3 78q-6 35 -25 54q-27 27 -75 27q-45 0 -99 -23q-40 -16 -48 -24v-392h-60v480h57v-35q75 47 158 47q71 0 111 -40q30 -30 39 -76q5 -26 5 -87v-289z" />
    <glyph glyph-name="o" unicode="o" horiz-adv-x="523" 
d="M480 236q0 -113 -59.5 -180.5t-160.5 -67.5q-98 0 -157.5 68.5t-59.5 183.5t59.5 183.5t162.5 68.5q98 0 156.5 -68.5t58.5 -187.5zM418 238q0 89 -44.5 145.5t-112.5 56.5q-71 0 -113.5 -54t-42.5 -144t44.5 -145.5t112.5 -55.5q73 0 114.5 53t41.5 144z" />
    <glyph glyph-name="p" unicode="p" horiz-adv-x="518" 
d="M475 250q0 -115 -66 -187.5t-170 -72.5q-66 0 -109 27v-230h-60v693h57v-33q60 45 138 45q94 0 152 -66.5t58 -175.5zM413 252q0 83 -43 135t-111 52q-73 0 -129 -47v-317q58 -32 110 -32q78 0 125.5 57.5t47.5 151.5z" />
    <glyph glyph-name="q" unicode="q" horiz-adv-x="518" 
d="M448 -213h-60v246q-54 -43 -134 -43q-96 0 -153.5 66.5t-57.5 177.5q0 115 68 186.5t175 71.5q75 0 162 -32v-673zM388 90v332q-57 17 -104 17q-82 0 -130.5 -55.5t-48.5 -147.5q0 -87 42.5 -140t112.5 -53q62 0 128 47z" />
    <glyph glyph-name="r" unicode="r" horiz-adv-x="349" 
d="M329 485l-14 -50q-21 3 -39 3q-45 0 -82 -21q-27 -15 -47 -39q-9 -12 -17 -24v-354h-60v480h57v-63q63 76 152 76q26 0 50 -8z" />
    <glyph glyph-name="s" unicode="s" horiz-adv-x="416" 
d="M366 131q0 -67 -46.5 -105t-126.5 -38q-58 0 -113 22q-38 15 -48 25l26 46q60 -40 131 -40q54 0 84.5 22.5t30.5 61.5q0 42 -41 69q-15 9 -79 34q-69 27 -93 47q-40 33 -40 91q0 57 45.5 91.5t114.5 34.5q54 0 103 -20q32 -13 42 -23l-24 -43q-59 34 -116 34
q-43 0 -73 -20t-30 -52q0 -37 31 -58q13 -9 72 -33q76 -31 99 -48q51 -37 51 -98z" />
    <glyph glyph-name="t" unicode="t" horiz-adv-x="370" 
d="M328 12q-46 -23 -95 -23q-65 0 -99 34q-19 19 -24 51q-4 21 -4 73v284h-84v49h84v136h60v-136h154v-49h-154v-272q0 -65 8 -83q14 -33 67 -33q23 0 48 7l23 8z" />
    <glyph glyph-name="u" unicode="u" horiz-adv-x="503" 
d="M433 0h-55v38q-72 -48 -156 -48q-73 0 -116 43q-31 31 -40 84q-3 22 -3 89v274h60v-286q0 -94 28.5 -122.5t74.5 -28.5q45 0 97 22l50 25v390h60v-480z" />
    <glyph glyph-name="v" unicode="v" horiz-adv-x="494" 
d="M466 480l-188 -480h-71l-187 480h66l159 -417l159 417h62z" />
    <glyph glyph-name="w" unicode="w" horiz-adv-x="739" 
d="M700 480l-140 -480h-74l-121 427l-123 -427h-74l-134 480h61l113 -419l120 419h80l118 -419l115 419h59z" />
    <glyph glyph-name="x" unicode="x" horiz-adv-x="478" 
d="M446 0h-73l-141 204l-141 -204h-69l176 246l-164 234h74l129 -190l130 190h68l-163 -233z" />
    <glyph glyph-name="y" unicode="y" horiz-adv-x="483" 
d="M458 480l-190 -514q-38 -103 -83 -148t-119 -45q-35 0 -86 17l16 49q42 -12 68 -12q50 0 79.5 29.5t70.5 131.5l-198 492h66l165 -415l149 415h62z" />
    <glyph glyph-name="z" unicode="z" horiz-adv-x="463" 
d="M408 0h-366v47l282 382h-268v51h342v-48l-278 -379h288v-53z" />
    <glyph glyph-name="braceleft" unicode="{" horiz-adv-x="335" 
d="M298 -122h-51q-84 0 -118 35q-31 32 -31 121v132q0 69 -12 81t-35 12v52q23 0 35 12t12 81v107q0 89 32.5 122.5t116.5 33.5h51v-53h-35q-71 0 -86 -17.5t-15 -82.5v-107q0 -53 -1 -64q-3 -31 -17 -45q-8 -8 -22 -13q13 -4 22 -13q14 -14 17 -45q1 -11 1 -64v-132
q0 -68 17 -84t84 -16h35v-53z" />
    <glyph glyph-name="bar" unicode="|" horiz-adv-x="254" 
d="M160 -122h-66v789h66v-789z" />
    <glyph glyph-name="braceright" unicode="}" horiz-adv-x="335" 
d="M284 259q-23 0 -35 -12t-12 -81v-132q0 -89 -31 -121q-34 -35 -118 -35h-51v53h35q71 0 87 19q14 16 14 81v132q0 53 1 64q3 31 17 45q9 9 22 13q-14 5 -22 13q-14 14 -17 45q-1 11 -1 64v107q0 68 -17 84t-84 16h-35v53h51q84 0 118 -35q31 -32 31 -121v-107
q0 -69 12 -81t35 -12v-52z" />
    <glyph glyph-name="asciitilde" unicode="~" 
d="M517 263q-53 -67 -117 -67q-40 0 -106 28.5t-97 28.5q-40 0 -75 -39l-46 31q49 67 122 67q41 0 105 -28.5t96 -28.5q36 0 73 41z" />
    <glyph glyph-name="Euro" unicode="&#x20ac;" 
d="M526 53q-81 -65 -178 -65q-136 0 -204 113q-45 75 -45 151h-67v49h64q-1 19 -1 37q0 10 1 28h-64v49h67q0 68 45 146q70 119 206 119q57 0 112 -26q33 -16 46 -29l-30 -43q-62 44 -126 44q-108 0 -158 -97q-30 -58 -30 -114h261v-49h-265q-1 -13 -1 -36q0 -12 1 -29h265
v-49h-261q0 -55 30 -113q49 -95 153 -95q65 0 148 52z" />
    <glyph glyph-name="quotesinglbase" unicode="&#x201a;" horiz-adv-x="197" 
d="M162 76q0 -109 -86 -195l-41 31q55 74 55 164h72z" />
    <glyph glyph-name="florin" unicode="&#x192;" 
d="M562 656l-18 -48q-32 16 -72 16q-45 0 -68.5 -28t-38.5 -100l-32 -150h153l-11 -55h-154l-62 -305q-14 -67 -22 -94q-17 -57 -40 -80q-39 -39 -101 -39q-45 0 -96 22l19 48q40 -15 72 -15q37 0 56 19t32 63q5 18 20 89l61 292h-129l11 55h129l30 143q11 54 18 75
q16 47 41 72q43 43 108 43q48 0 94 -23z" />
    <glyph glyph-name="quotedblbase" unicode="&#x201e;" horiz-adv-x="329" 
d="M294 76q0 -109 -86 -195l-41 31q55 74 55 164h72zM162 76q0 -109 -86 -195l-41 31q55 74 55 164h72z" />
    <glyph glyph-name="ellipsis" unicode="&#x2026;" horiz-adv-x="648" 
d="M585 37q0 -19 -13 -32t-32 -13t-32 13t-13 32t13 32t32 13t32 -13t13 -32zM369 37q0 -19 -13 -32t-32 -13t-32 13t-13 32t13 32t32 13t32 -13t13 -32zM153 37q0 -19 -13 -32t-32 -13t-32 13t-13 32t13 32t32 13t32 -13t13 -32z" />
    <glyph glyph-name="dagger" unicode="&#x2020;" horiz-adv-x="553" 
d="M483 363h-175l-6 -485h-50l-7 485h-175v57h174l-3 247h71l-3 -247h174v-57z" />
    <glyph glyph-name="daggerdbl" unicode="&#x2021;" horiz-adv-x="553" 
d="M483 166h-177l-4 -288h-50l-4 288h-178v56h177l-2 141h-175v57h174l-3 247h71l-3 -247h174v-57h-175l-1 -141h176v-56z" />
    <glyph glyph-name="circumflex" unicode="&#x2c6;" horiz-adv-x="380" 
d="M343 586l-26 -39l-126 69l-126 -69l-28 39l154 99z" />
    <glyph glyph-name="perthousand" unicode="&#x2030;" horiz-adv-x="1071" 
d="M1026 166q0 -84 -39 -131.5t-108 -47.5q-66 0 -105 45t-39 123q0 87 39 135.5t109 48.5q65 0 104 -47t39 -126zM686 166q0 -84 -39 -131.5t-108 -47.5q-66 0 -105 45t-39 123q0 87 39 135.5t109 48.5q65 0 104 -47t39 -126zM624 670l-475 -706l-44 29l476 708zM336 507
q0 -84 -39 -131.5t-108 -47.5q-66 0 -105 45t-39 123q0 87 39 135.5t109 48.5q65 0 104 -47t39 -126zM970 166q0 60 -23 94t-64 34q-92 0 -92 -137q0 -125 88 -125q91 0 91 134zM630 166q0 60 -23 94t-64 34q-92 0 -92 -137q0 -125 88 -125q91 0 91 134zM280 507
q0 60 -23 94t-64 34q-92 0 -92 -137q0 -125 88 -125q91 0 91 134z" />
    <glyph glyph-name="Scaron" unicode="&#x160;" horiz-adv-x="516" 
d="M415 816l-154 -99l-152 99l26 39l126 -69l126 69zM455 183q0 -87 -54 -140q-57 -56 -158 -56q-111 0 -194 71l33 46q86 -60 157 -60q72 0 111 36.5t39 97.5q0 44 -34 78q-29 29 -121 68.5t-127 74.5q-40 40 -40 109q0 75 54.5 123t142.5 48q113 0 183 -71l-34 -40
q-67 56 -144 56q-62 0 -101 -32.5t-39 -82.5q0 -40 28 -68t113 -64q91 -38 126 -66q59 -50 59 -128z" />
    <glyph glyph-name="guilsinglleft" unicode="&#x2039;" horiz-adv-x="309" 
d="M245 83l-44 -29l-138 193l138 189l44 -29l-97 -160z" />
    <glyph glyph-name="OE" unicode="&#x152;" horiz-adv-x="879" 
d="M822 0h-362q-109 0 -164 11q-90 18 -145 72q-96 95 -96 247q0 156 96 252q54 54 127 72q53 13 159 13h377v-54h-289v-237h271v-53h-271v-268h297v-55zM462 53v561h-29q-86 0 -130 -10q-63 -15 -108 -60q-75 -75 -75 -216q0 -130 79 -209q42 -42 102 -55q48 -11 157 -11h4
z" />
    <glyph glyph-name="quoteleft" unicode="&#x2018;" horiz-adv-x="197" 
d="M162 650q-55 -74 -55 -164h-72q0 109 86 195z" />
    <glyph glyph-name="quoteright" unicode="&#x2019;" horiz-adv-x="197" 
d="M162 667q0 -109 -86 -195l-41 31q55 74 55 164h72z" />
    <glyph glyph-name="quotedblleft" unicode="&#x201c;" horiz-adv-x="329" 
d="M294 650q-55 -74 -55 -164h-72q0 109 86 195zM162 650q-55 -74 -55 -164h-72q0 109 86 195z" />
    <glyph glyph-name="quotedblright" unicode="&#x201d;" horiz-adv-x="329" 
d="M294 667q0 -109 -86 -195l-41 31q55 74 55 164h72zM162 667q0 -109 -86 -195l-41 31q55 74 55 164h72z" />
    <glyph glyph-name="bullet" unicode="&#x2022;" horiz-adv-x="548" 
d="M356 253q0 -34 -23.5 -58t-58.5 -24q-33 0 -57.5 24t-24.5 58q0 33 24.5 57.5t57.5 24.5q34 0 58 -24.5t24 -57.5z" />
    <glyph glyph-name="endash" unicode="&#x2013;" horiz-adv-x="644" 
d="M559 227h-474v53h474v-53z" />
    <glyph glyph-name="emdash" unicode="&#x2014;" horiz-adv-x="994" 
d="M909 227h-824v53h824v-53z" />
    <glyph glyph-name="tilde" unicode="&#x2dc;" horiz-adv-x="379" 
d="M342 618q-45 -45 -99 -45q-19 0 -55 11t-55 11q-30 0 -67 -23l-29 39q51 43 97 43q20 0 56 -11.5t54 -11.5q38 0 69 27z" />
    <glyph glyph-name="trademark" unicode="&#x2122;" horiz-adv-x="727" 
d="M680 313h-52l-28 257l-93 -257h-40l-93 257l-27 -257h-49l40 354h51l101 -271l97 271h52zM283 625h-102v-312h-48v312h-103v42h253v-42z" />
    <glyph glyph-name="scaron" unicode="&#x161;" horiz-adv-x="416" 
d="M363 646l-154 -99l-152 99l26 39l126 -69l126 69zM366 131q0 -67 -46.5 -105t-126.5 -38q-58 0 -113 22q-38 15 -48 25l26 46q60 -40 131 -40q54 0 84.5 22.5t30.5 61.5q0 42 -41 69q-15 9 -79 34q-69 27 -93 47q-40 33 -40 91q0 57 45.5 91.5t114.5 34.5q54 0 103 -20
q32 -13 42 -23l-24 -43q-59 34 -116 34q-43 0 -73 -20t-30 -52q0 -37 31 -58q13 -9 72 -33q76 -31 99 -48q51 -37 51 -98z" />
    <glyph glyph-name="guilsinglright" unicode="&#x203a;" horiz-adv-x="309" 
d="M246 247l-138 -193l-44 29l97 164l-97 160l44 29z" />
    <glyph glyph-name="oe" unicode="&#x153;" horiz-adv-x="867" 
d="M824 260q0 -2 -1 -14t-1 -18h-344q0 -82 43 -132t122 -50q61 0 139 39l27 -46q-6 -8 -49 -26q-60 -23 -122 -23q-77 0 -132 40q-38 28 -56 66l-22 -32q-25 -31 -59 -50q-47 -26 -108 -26q-99 0 -158.5 68.5t-59.5 183.5t60 183.5t162 68.5q121 0 184 -110q30 45 43 57
q57 53 143 53q85 0 136 -60q53 -63 53 -172zM763 279q0 63 -28 108q-35 54 -99 54t-108 -44t-48 -118h283zM418 238q0 89 -44.5 145.5t-112.5 56.5q-71 0 -113.5 -54t-42.5 -144t44.5 -145.5t112.5 -55.5q73 0 114.5 53t41.5 144z" />
    <glyph glyph-name="Ydieresis" unicode="&#x178;" horiz-adv-x="541" 
d="M515 667l-213 -404v-263h-63v263l-213 404h70l178 -342l176 342h65zM395 770q0 -19 -13 -32t-32 -13t-32 13t-13 32t13 32t32 13t32 -13t13 -32zM243 770q0 -19 -13 -32t-32 -13t-32 13t-13 32t13 32t32 13t32 -13t13 -32z" />
    <glyph glyph-name="nonbreakingspace" unicode="&#xa0;" horiz-adv-x="236" 
 />
    <glyph glyph-name="exclamdown" unicode="&#xa1;" horiz-adv-x="290" 
d="M190 447q0 -19 -13 -32t-32 -13t-32 13t-13 32t13 32t32 13t32 -13t13 -32zM185 -183h-77l10 505h54z" />
    <glyph glyph-name="cent" unicode="&#xa2;" 
d="M500 48q-6 -7 -42 -23q-46 -19 -88 -23v-102h-57v101q-88 7 -144 67q-60 65 -60 172q0 112 62 184q57 66 142 75v82h57v-80q46 -5 88 -24q26 -13 35 -22l-27 -42q-19 12 -32 17q-30 13 -64 17v-389q43 5 104 35zM313 58v387q-60 -10 -99 -60q-43 -55 -43 -136
q0 -83 44 -136q39 -48 98 -55z" />
    <glyph glyph-name="sterling" unicode="&#xa3;" 
d="M539 620l-31 -40q-58 45 -130 45t-112 -46t-40 -131q0 -35 7 -102h195v-55h-190q0 -3 1.5 -25t1.5 -35q0 -135 -62 -178h353v-53h-449v51q48 15 69 45q26 37 26 112q0 31 -4 83h-89v55h85q-10 72 -10 102q0 108 57.5 169.5t156.5 61.5q65 0 118 -26q34 -16 47 -33z" />
    <glyph glyph-name="currency" unicode="&#xa4;" 
d="M526 53q-81 -65 -178 -65q-136 0 -204 113q-45 75 -45 151h-67v49h64q-1 19 -1 37q0 10 1 28h-64v49h67q0 68 45 146q70 119 206 119q57 0 112 -26q33 -16 46 -29l-30 -43q-62 44 -126 44q-108 0 -158 -97q-30 -58 -30 -114h261v-49h-265q-1 -13 -1 -36q0 -12 1 -29h265
v-49h-261q0 -55 30 -113q49 -95 153 -95q65 0 148 52z" />
    <glyph glyph-name="yen" unicode="&#xa5;" 
d="M535 667l-188 -322h126v-49h-146v-55h146v-49h-146v-192h-63v192h-145v49h145v55h-145v49h123l-184 322h71l167 -311l173 311h66z" />
    <glyph glyph-name="brokenbar" unicode="&#xa6;" horiz-adv-x="254" 
d="M160 364h-66v303h66v-303zM160 -122h-66v304h66v-304z" />
    <glyph glyph-name="section" unicode="&#xa7;" 
d="M486 278q0 -97 -110 -140q91 -48 91 -126q0 -67 -48 -112q-51 -46 -133 -46q-102 0 -179 56l30 47q79 -45 143 -45q59 0 92 28q30 25 30 64q0 34 -23.5 57.5t-104.5 56.5t-115 67q-39 39 -39 88q0 92 117 136q-94 48 -94 130q0 64 46.5 102t123.5 38q88 0 149 -49
l-28 -43q-51 38 -120 38q-50 0 -78 -22t-28 -56q0 -31 21 -52t105.5 -58.5t110.5 -63.5q41 -41 41 -95zM421 267q0 34 -22 56q-25 25 -108 62q-108 -33 -108 -103q0 -29 22.5 -51t123.5 -66q92 35 92 102z" />
    <glyph glyph-name="dieresis" unicode="&#xa8;" horiz-adv-x="316" 
d="M279 615q0 -19 -13 -32t-32 -13t-32 13t-13 32t13 32t32 13t32 -13t13 -32zM127 615q0 -19 -13 -32t-32 -13t-32 13t-13 32t13 32t32 13t32 -13t13 -32z" />
    <glyph glyph-name="copyright" unicode="&#xa9;" horiz-adv-x="787" 
d="M739 333q0 -142 -101 -243.5t-244 -101.5t-244.5 101.5t-101.5 243.5q0 143 102 244.5t244 101.5q143 0 244 -103t101 -243zM682 333q0 121 -85 204.5t-203 83.5q-119 0 -204 -86t-85 -202q0 -118 85 -202.5t204 -84.5t203.5 84.5t84.5 202.5zM521 188q-8 -11 -40 -24
q-42 -17 -86 -17q-75 0 -123 49.5t-48 133.5q0 88 50 143.5t130 55.5q41 0 78 -17q25 -12 35 -23l-26 -40q-44 29 -90 29q-53 0 -86.5 -40t-33.5 -102t33 -99t84 -37q42 0 100 29z" />
    <glyph glyph-name="ordfeminine" unicode="&#xaa;" horiz-adv-x="410" 
d="M332 312h-47v24q-51 -32 -108 -32q-51 0 -83 30.5t-32 79.5q0 118 205 118h16v10q0 57 -18 75t-64 18q-50 0 -97 -29l-21 34q10 10 37 21q41 18 87 18q63 0 97 -34q28 -28 28 -105v-228zM283 375v116h-17q-153 0 -153 -77q0 -66 74 -66q44 0 96 27z" />
    <glyph glyph-name="guillemotleft" unicode="&#xab;" horiz-adv-x="465" 
d="M401 83l-44 -29l-138 193l138 189l44 -29l-97 -160zM245 83l-44 -29l-138 193l138 189l44 -29l-97 -160z" />
    <glyph glyph-name="logicalnot" unicode="&#xac;" 
d="M534 144h-58v136h-417v53h475v-189z" />
    <glyph glyph-name="minus" unicode="&#xad;" 
d="M534 227h-475v53h475v-53z" />
    <glyph glyph-name="minus" unicode="&#x2212;" 
d="M534 227h-475v53h475v-53z" />
    <glyph glyph-name="registered" unicode="&#xae;" horiz-adv-x="536" 
d="M488 459q0 -91 -64 -155t-156 -64t-156 64t-64 155q0 92 64.5 156t155.5 64q92 0 156 -64t64 -156zM443 459q0 73 -50.5 123.5t-124.5 50.5t-124.5 -50.5t-50.5 -123.5t50.5 -123t124.5 -50t124.5 50t50.5 123zM372 341h-44l-30 62q-13 26 -20.5 31t-33.5 5h-11v-98h-42
v241h59q57 0 78.5 -19.5t21.5 -51.5q0 -51 -49 -57q19 0 33 -31zM309 513q0 31 -57 31h-19v-67q37 0 49 3q27 7 27 33z" />
    <glyph glyph-name="macron" unicode="&#xaf;" horiz-adv-x="375" 
d="M337 588h-300v54h300v-54z" />
    <glyph glyph-name="macron" unicode="&#x2c9;" horiz-adv-x="375" 
d="M337 588h-300v54h300v-54z" />
    <glyph glyph-name="degree" unicode="&#xb0;" 
d="M441 535q0 -60 -42 -102t-102 -42t-102.5 42t-42.5 102t42.5 102t102.5 42t102 -42t42 -102zM395 535q0 41 -28.5 69.5t-69.5 28.5t-70 -28.5t-29 -69.5t29 -69.5t70 -28.5t69.5 28.5t28.5 69.5z" />
    <glyph glyph-name="plusminus" unicode="&#xb1;" 
d="M520 307h-197v-208h-53v208h-197v53h197v212h53v-212h197v-53zM520 0h-447v53h447v-53z" />
    <glyph glyph-name="twosuperior" unicode="&#xb2;" horiz-adv-x="357" 
d="M283 333h-207v39l95 94q60 66 60 109q0 58 -57 58q-36 0 -73 -33l-25 31q8 14 34 29q33 19 69 19q46 0 73.5 -27.5t27.5 -73.5q0 -40 -28 -82q-17 -25 -60 -70l-46 -48h137v-45z" />
    <glyph glyph-name="threesuperior" unicode="&#xb3;" horiz-adv-x="357" 
d="M283 431q0 -48 -32.5 -76t-80.5 -28q-70 0 -104 44l27 30q36 -30 72 -30q69 0 69 56q0 22 -14 37q-19 21 -76 21h-14v44h17q82 0 82 54q0 22 -15 37t-42 15q-41 0 -71 -30l-28 28q37 46 101 46q47 0 75.5 -26t28.5 -69q0 -24 -16 -45q-17 -24 -44 -30q65 -15 65 -78z" />
    <glyph glyph-name="acute" unicode="&#xb4;" horiz-adv-x="308" 
d="M271 626l-214 -80l-20 39l207 100z" />
    <glyph glyph-name="mu" unicode="&#xb5;" horiz-adv-x="510" 
d="M440 0h-55v38q-72 -48 -156 -48q-55 0 -99 29v-141h-60v602h60v-286q0 -94 28.5 -122.5t74.5 -28.5q45 0 97 22l50 25v390h60v-480z" />
    <glyph glyph-name="mu" unicode="&#x3bc;" horiz-adv-x="510" 
d="M440 0h-55v38q-72 -48 -156 -48q-55 0 -99 29v-141h-60v602h60v-286q0 -94 28.5 -122.5t74.5 -28.5q45 0 97 22l50 25v390h60v-480z" />
    <glyph glyph-name="paragraph" unicode="&#xb6;" horiz-adv-x="584" 
d="M524 614h-61v-736h-53v736h-49v-736h-52v403q-65 0 -96 5q-69 11 -108 50q-54 54 -54 144q0 79 52 131q36 36 96 47q46 9 150 9h175v-53z" />
    <glyph glyph-name="periodcentered" unicode="&#xb7;" horiz-adv-x="216" 
d="M153 254q0 -19 -13 -32t-32 -13t-32 13t-13 32t13 32t32 13t32 -13t13 -32z" />
    <glyph glyph-name="periodcentered" unicode="&#x22c5;" horiz-adv-x="216" 
d="M153 254q0 -19 -13 -32t-32 -13t-32 13t-13 32t13 32t32 13t32 -13t13 -32z" />
    <glyph glyph-name="periodcentered" unicode="&#x2219;" horiz-adv-x="216" 
d="M153 254q0 -19 -13 -32t-32 -13t-32 13t-13 32t13 32t32 13t32 -13t13 -32z" />
    <glyph glyph-name="cedilla" unicode="&#xb8;" horiz-adv-x="334" 
d="M252 -131q0 -40 -28.5 -63.5t-66.5 -23.5q-46 0 -69 20l16 36q19 -12 48 -12q49 0 49 41t-42 41q-21 0 -40 -14l-26 17l18 89h43l-9 -53q7 5 25 5q37 0 59.5 -23t22.5 -60z" />
    <glyph glyph-name="onesuperior" unicode="&#xb9;" horiz-adv-x="357" 
d="M234 333h-52v277l-78 -50l-27 40l117 74h40v-341z" />
    <glyph glyph-name="ordmasculine" unicode="&#xba;" horiz-adv-x="409" 
d="M367 488q0 -84 -44.5 -134.5t-119.5 -50.5q-73 0 -117 51t-44 137q0 85 44.5 136.5t120.5 51.5q73 0 116.5 -51.5t43.5 -139.5zM317 490q0 65 -32.5 105.5t-80.5 40.5q-51 0 -81.5 -39.5t-30.5 -104.5t32 -105t81 -40q52 0 82 38.5t30 104.5z" />
    <glyph glyph-name="guillemotright" unicode="&#xbb;" horiz-adv-x="465" 
d="M402 247l-138 -193l-44 29l97 164l-97 160l44 29zM246 247l-138 -193l-44 29l97 164l-97 160l44 29z" />
    <glyph glyph-name="onequarter" unicode="&#xbc;" horiz-adv-x="731" 
d="M626 670l-476 -706l-43 29l476 708zM648 78h-47v-78h-51v78h-164v38l168 225h47v-218h47v-45zM255 333h-52v277l-78 -50l-27 40l117 74h40v-341zM550 123v142l-105 -142h105z" />
    <glyph glyph-name="onehalf" unicode="&#xbd;" horiz-adv-x="731" 
d="M676 0h-207v39l95 94q60 66 60 109q0 58 -57 58q-36 0 -73 -33l-25 31q8 14 34 29q33 19 69 19q46 0 73.5 -27.5t27.5 -73.5q0 -40 -28 -82q-17 -25 -60 -70l-46 -48h137v-45zM577 670l-476 -706l-43 29l476 708zM205 333h-52v277l-78 -50l-27 40l117 74h40v-341z" />
    <glyph glyph-name="threequarters" unicode="&#xbe;" horiz-adv-x="731" 
d="M631 670l-476 -706l-43 29l476 708zM309 431q0 -48 -32.5 -76t-80.5 -28q-70 0 -104 44l27 30q36 -30 72 -30q69 0 69 56q0 22 -14 37q-19 21 -76 21h-14v44h17q82 0 82 54q0 52 -57 52q-41 0 -71 -30l-28 28q37 46 101 46q47 0 75.5 -26t28.5 -69q0 -24 -16 -45
q-17 -24 -44 -30q65 -15 65 -78zM653 78h-47v-78h-51v78h-164v38l168 225h47v-218h47v-45zM555 123v142l-105 -142h105z" />
    <glyph glyph-name="questiondown" unicode="&#xbf;" horiz-adv-x="493" 
d="M337 447q0 -19 -13 -32t-32 -13t-32 13t-13 32t13 32t32 13t32 -13t13 -32zM438 -137q-9 -12 -54 -31q-63 -28 -127 -28q-84 0 -134.5 50.5t-50.5 133.5q0 77 58 135q17 17 59 43t54 38q17 17 20 42q2 12 2 76h54q2 -38 2 -56q0 -39 -3 -52q-4 -19 -20 -35t-54.5 -43
t-57.5 -46q-45 -45 -45 -102q0 -56 36.5 -91.5t94.5 -35.5q69 0 138 46z" />
    <glyph glyph-name="Agrave" unicode="&#xc0;" horiz-adv-x="581" 
d="M570 0h-68l-68 191h-291l-68 -191h-64l243 667h72zM415 246l-127 354l-126 -354h253zM411 756l-20 -39l-214 80l27 59z" />
    <glyph glyph-name="Aacute" unicode="&#xc1;" horiz-adv-x="581" 
d="M570 0h-68l-68 191h-291l-68 -191h-64l243 667h72zM415 246l-127 354l-126 -354h253zM408 797l-214 -80l-20 39l207 100z" />
    <glyph glyph-name="Acircumflex" unicode="&#xc2;" horiz-adv-x="581" 
d="M570 0h-68l-68 191h-291l-68 -191h-64l243 667h72zM415 246l-127 354l-126 -354h253zM440 756l-26 -39l-126 69l-126 -69l-28 39l154 99z" />
    <glyph glyph-name="Atilde" unicode="&#xc3;" horiz-adv-x="581" 
d="M570 0h-68l-68 191h-291l-68 -191h-64l243 667h72zM415 246l-127 354l-126 -354h253zM442 763q-45 -45 -99 -45q-19 0 -55 11t-55 11q-30 0 -67 -23l-29 39q51 43 97 43q20 0 56 -11.5t54 -11.5q38 0 69 27z" />
    <glyph glyph-name="Adieresis" unicode="&#xc4;" horiz-adv-x="581" 
d="M570 0h-68l-68 191h-291l-68 -191h-64l243 667h72zM415 246l-127 354l-126 -354h253zM410 770q0 -19 -13 -32t-32 -13t-32 13t-13 32t13 32t32 13t32 -13t13 -32zM258 770q0 -19 -13 -32t-32 -13t-32 13t-13 32t13 32t32 13t32 -13t13 -32z" />
    <glyph glyph-name="Aring" unicode="&#xc5;" horiz-adv-x="581" 
d="M570 0h-68l-68 191h-291l-68 -191h-64l243 667h72zM415 246l-127 354l-126 -354h253zM386 815q0 -40 -28.5 -69t-69.5 -29q-40 0 -69 29t-29 69q0 41 29 69.5t69 28.5q41 0 69.5 -29t28.5 -69zM345 815q0 24 -16.5 40.5t-40.5 16.5q-23 0 -39.5 -17t-16.5 -40t16.5 -39.5
t39.5 -16.5q24 0 40.5 16.5t16.5 39.5z" />
    <glyph glyph-name="AE" unicode="&#xc6;" horiz-adv-x="849" 
d="M792 0h-360v191h-238l-103 -191h-71l376 667h388v-54h-289v-237h271v-53h-271v-268h297v-55zM432 246v367l-209 -367h209z" />
    <glyph glyph-name="Ccedilla" unicode="&#xc7;" horiz-adv-x="606" 
d="M582 52q-16 -16 -62 -35q-71 -29 -151 -29l-9 -45q7 5 26 5q38 0 61 -24t23 -62q0 -42 -31 -67q-27 -22 -66 -22q-48 0 -71 20l16 37q19 -12 49 -12q51 0 51 42q0 43 -43 43q-22 0 -42 -15l-26 18l17 85q-109 12 -182 91q-87 93 -87 246q0 162 96 260q90 92 228 92
q75 0 137 -23q42 -16 58 -32l-29 -47q-60 43 -161 43q-112 0 -186 -75q-78 -80 -78 -210q0 -132 70 -210.5t187 -78.5q63 0 124 25l51 26z" />
    <glyph glyph-name="Egrave" unicode="&#xc8;" horiz-adv-x="498" 
d="M446 0h-360v667h352v-54h-289v-237h271v-53h-271v-267h297v-56zM375 756l-20 -39l-214 80l27 59z" />
    <glyph glyph-name="Eacute" unicode="&#xc9;" horiz-adv-x="498" 
d="M446 0h-360v667h352v-54h-289v-237h271v-53h-271v-267h297v-56zM379 797l-214 -80l-20 39l207 100z" />
    <glyph glyph-name="Ecircumflex" unicode="&#xca;" horiz-adv-x="498" 
d="M446 0h-360v667h352v-54h-289v-237h271v-53h-271v-267h297v-56zM409 756l-26 -39l-126 69l-126 -69l-28 39l154 99z" />
    <glyph glyph-name="Edieresis" unicode="&#xcb;" horiz-adv-x="498" 
d="M446 0h-360v667h352v-54h-289v-237h271v-53h-271v-267h297v-56zM371 770q0 -19 -13 -32t-32 -13t-32 13t-13 32t13 32t32 13t32 -13t13 -32zM219 770q0 -19 -13 -32t-32 -13t-32 13t-13 32t13 32t32 13t32 -13t13 -32z" />
    <glyph glyph-name="Igrave" unicode="&#xcc;" horiz-adv-x="236" 
d="M154 0h-64v667h64v-667zM245 755l-20 -39l-214 80l27 59z" />
    <glyph glyph-name="Iacute" unicode="&#xcd;" horiz-adv-x="236" 
d="M154 0h-64v667h64v-667zM235 797l-214 -80l-20 39l207 100z" />
    <glyph glyph-name="Icircumflex" unicode="&#xce;" horiz-adv-x="236" 
d="M154 0h-64v667h64v-667zM271 756l-26 -39l-126 69l-126 -69l-28 39l154 99z" />
    <glyph glyph-name="Idieresis" unicode="&#xcf;" horiz-adv-x="236" 
d="M154 0h-64v667h64v-667zM244 770q0 -19 -13 -32t-32 -13t-32 13t-13 32t13 32t32 13t32 -13t13 -32zM92 770q0 -19 -13 -32t-32 -13t-32 13t-13 32t13 32t32 13t32 -13t13 -32z" />
    <glyph glyph-name="Eth" unicode="&#xd0;" horiz-adv-x="684" 
d="M629 337q0 -156 -96 -252q-54 -54 -127 -72q-53 -13 -159 -13h-151v323h-100v53h100v291h128q118 0 177 -13q80 -18 132 -70q96 -96 96 -247zM564 339q0 130 -79 209q-42 42 -102 55q-48 11 -157 11h-66v-238h202v-53h-202v-270h91q86 0 129 10q64 15 109 60
q75 75 75 216z" />
    <glyph glyph-name="Ntilde" unicode="&#xd1;" horiz-adv-x="634" 
d="M548 0h-73l-332 573l2 -573h-59v667h70l335 -578l-2 578h59v-667zM459 763q-45 -45 -99 -45q-19 0 -55 11t-55 11q-30 0 -67 -23l-29 39q51 43 97 43q20 0 56 -11.5t54 -11.5q38 0 69 27z" />
    <glyph glyph-name="Ograve" unicode="&#xd2;" horiz-adv-x="701" 
d="M646 336q0 -154 -83 -251t-216 -97q-126 0 -209 96t-83 244q0 155 83.5 253t216.5 98q127 0 209 -96t82 -247zM578 340q0 126 -64.5 205t-165.5 79q-102 0 -163.5 -79t-61.5 -209q0 -128 64.5 -210.5t163.5 -82.5q104 0 165.5 81t61.5 216zM465 755l-20 -39l-214 80
l27 59z" />
    <glyph glyph-name="Oacute" unicode="&#xd3;" horiz-adv-x="701" 
d="M646 336q0 -154 -83 -251t-216 -97q-126 0 -209 96t-83 244q0 155 83.5 253t216.5 98q127 0 209 -96t82 -247zM578 340q0 126 -64.5 205t-165.5 79q-102 0 -163.5 -79t-61.5 -209q0 -128 64.5 -210.5t163.5 -82.5q104 0 165.5 81t61.5 216zM456 797l-214 -80l-20 39
l207 100z" />
    <glyph glyph-name="Ocircumflex" unicode="&#xd4;" horiz-adv-x="701" 
d="M646 336q0 -154 -83 -251t-216 -97q-126 0 -209 96t-83 244q0 155 83.5 253t216.5 98q127 0 209 -96t82 -247zM578 340q0 126 -64.5 205t-165.5 79q-102 0 -163.5 -79t-61.5 -209q0 -128 64.5 -210.5t163.5 -82.5q104 0 165.5 81t61.5 216zM496 756l-26 -39l-126 69
l-126 -69l-28 39l154 99z" />
    <glyph glyph-name="Otilde" unicode="&#xd5;" horiz-adv-x="701" 
d="M646 336q0 -154 -83 -251t-216 -97q-126 0 -209 96t-83 244q0 155 83.5 253t216.5 98q127 0 209 -96t82 -247zM578 340q0 126 -64.5 205t-165.5 79q-102 0 -163.5 -79t-61.5 -209q0 -128 64.5 -210.5t163.5 -82.5q104 0 165.5 81t61.5 216zM500 763q-45 -45 -99 -45
q-19 0 -55 11t-55 11q-30 0 -67 -23l-29 39q51 43 97 43q20 0 56 -11.5t54 -11.5q38 0 69 27z" />
    <glyph glyph-name="Odieresis" unicode="&#xd6;" horiz-adv-x="701" 
d="M646 336q0 -154 -83 -251t-216 -97q-126 0 -209 96t-83 244q0 155 83.5 253t216.5 98q127 0 209 -96t82 -247zM578 340q0 126 -64.5 205t-165.5 79q-102 0 -163.5 -79t-61.5 -209q0 -128 64.5 -210.5t163.5 -82.5q104 0 165.5 81t61.5 216zM473 770q0 -19 -13 -32
t-32 -13t-32 13t-13 32t13 32t32 13t32 -13t13 -32zM321 770q0 -19 -13 -32t-32 -13t-32 13t-13 32t13 32t32 13t32 -13t13 -32z" />
    <glyph glyph-name="multiply" unicode="&#xd7;" 
d="M523 64l-37 -37l-190 189l-189 -189l-37 37l189 189l-189 190l37 37l189 -189l190 189l37 -37l-189 -190z" />
    <glyph glyph-name="Oslash" unicode="&#xd8;" horiz-adv-x="701" 
d="M646 336q0 -154 -83 -251t-216 -97q-85 0 -135 36l-53 -92l-46 27l54 96q-32 27 -58 70q-54 88 -54 203q0 155 83.5 253t216.5 98q53 0 101 -18q31 -12 44 -23l54 95l46 -27l-57 -101q103 -103 103 -269zM578 340q0 85 -32 153q-18 39 -36 57l-269 -474q66 -33 111 -33
q104 0 165 81t61 216zM470 586q-43 38 -121 38q-102 0 -164 -79.5t-62 -208.5q0 -141 76 -223z" />
    <glyph glyph-name="Ugrave" unicode="&#xd9;" horiz-adv-x="617" 
d="M541 346q0 -136 -5 -172q-10 -79 -54 -123q-63 -63 -173 -63t-175 65q-41 41 -52 108q-6 36 -6 145v361h63v-422q0 -58 5 -83q8 -43 37 -72q47 -47 131 -47q77 0 120 43q33 33 41 82q5 33 5 146v353h63v-321zM417 756l-20 -39l-214 80l27 59z" />
    <glyph glyph-name="Uacute" unicode="&#xda;" horiz-adv-x="617" 
d="M541 346q0 -136 -5 -172q-10 -79 -54 -123q-63 -63 -173 -63t-175 65q-41 41 -52 108q-6 36 -6 145v361h63v-422q0 -58 5 -83q8 -43 37 -72q47 -47 131 -47q77 0 120 43q33 33 41 82q5 33 5 146v353h63v-321zM426 797l-214 -80l-20 39l207 100z" />
    <glyph glyph-name="Ucircumflex" unicode="&#xdb;" horiz-adv-x="617" 
d="M541 346q0 -136 -5 -172q-10 -79 -54 -123q-63 -63 -173 -63t-175 65q-41 41 -52 108q-6 36 -6 145v361h63v-422q0 -58 5 -83q8 -43 37 -72q47 -47 131 -47q77 0 120 43q33 33 41 82q5 33 5 146v353h63v-321zM455 756l-26 -39l-126 69l-126 -69l-28 39l154 99z" />
    <glyph glyph-name="Udieresis" unicode="&#xdc;" horiz-adv-x="617" 
d="M541 346q0 -136 -5 -172q-10 -79 -54 -123q-63 -63 -173 -63t-175 65q-41 41 -52 108q-6 36 -6 145v361h63v-422q0 -58 5 -83q8 -43 37 -72q47 -47 131 -47q77 0 120 43q33 33 41 82q5 33 5 146v353h63v-321zM430 770q0 -19 -13 -32t-32 -13t-32 13t-13 32t13 32t32 13
t32 -13t13 -32zM278 770q0 -19 -13 -32t-32 -13t-32 13t-13 32t13 32t32 13t32 -13t13 -32z" />
    <glyph glyph-name="Yacute" unicode="&#xdd;" horiz-adv-x="541" 
d="M515 667l-213 -404v-263h-63v263l-213 404h70l178 -342l176 342h65zM384 797l-214 -80l-20 39l207 100z" />
    <glyph glyph-name="Thorn" unicode="&#xde;" horiz-adv-x="544" 
d="M489 345q0 -88 -53 -141q-41 -41 -102 -52q-32 -6 -126 -6h-59v-146h-63v667h63v-130h89q73 0 110 -8q54 -11 87 -44q54 -54 54 -140zM425 346q0 65 -41 106q-23 23 -67 29q-25 4 -85 4h-83v-287h55q77 0 104 4q48 7 75 34q42 42 42 110z" />
    <glyph glyph-name="germandbls" unicode="&#xdf;" horiz-adv-x="527" 
d="M484 154q0 -77 -52.5 -121.5t-127.5 -44.5q-49 0 -124 32l22 49q50 -25 97 -25q53 0 86.5 28.5t33.5 76.5q0 45 -37 82q-12 12 -51 40t-56 45q-24 24 -24 52q0 27 29 60l54 59q29 38 29 80q0 50 -31.5 80.5t-81.5 30.5q-51 0 -83 -32q-37 -37 -37 -165v-481h-60v445
q0 99 5 135q11 67 48 104q48 48 131 48q76 0 125 -46t49 -118q0 -52 -27 -94q-14 -20 -52 -57q-27 -27 -27 -42q0 -13 17 -30l89 -71q56 -53 56 -120z" />
    <glyph glyph-name="agrave" unicode="&#xe0;" horiz-adv-x="464" 
d="M353 585l-20 -39l-214 80l27 59zM401 0h-55v36l-46 -24q-54 -22 -107 -22q-69 0 -111.5 40.5t-42.5 105.5q0 157 277 157h25v18q0 76 -24 101q-27 28 -91 28q-66 0 -133 -38l-25 42q11 11 47 26q55 23 118 23q84 0 130 -46q26 -26 33 -64q5 -23 5 -74v-309zM341 82v162
h-27q-213 0 -213 -109q0 -39 25 -64q28 -28 81 -28q50 0 134 39z" />
    <glyph glyph-name="aacute" unicode="&#xe1;" horiz-adv-x="464" 
d="M349 626l-214 -80l-20 39l207 100zM401 0h-55v36l-46 -24q-54 -22 -107 -22q-69 0 -111.5 40.5t-42.5 105.5q0 157 277 157h25v18q0 76 -24 101q-27 28 -91 28q-66 0 -133 -38l-25 42q11 11 47 26q55 23 118 23q84 0 130 -46q26 -26 33 -64q5 -23 5 -74v-309zM341 82v162
h-27q-213 0 -213 -109q0 -39 25 -64q28 -28 81 -28q50 0 134 39z" />
    <glyph glyph-name="acircumflex" unicode="&#xe2;" horiz-adv-x="464" 
d="M401 0h-55v36l-46 -24q-54 -22 -107 -22q-69 0 -111.5 40.5t-42.5 105.5q0 157 277 157h25v18q0 76 -24 101q-27 28 -91 28q-66 0 -133 -38l-25 42q11 11 47 26q55 23 118 23q84 0 130 -46q26 -26 33 -64q5 -23 5 -74v-309zM341 82v162h-27q-213 0 -213 -109
q0 -39 25 -64q28 -28 81 -28q50 0 134 39zM381 586l-26 -39l-126 69l-126 -69l-28 39l154 99z" />
    <glyph glyph-name="atilde" unicode="&#xe3;" horiz-adv-x="464" 
d="M401 0h-55v36l-46 -24q-54 -22 -107 -22q-69 0 -111.5 40.5t-42.5 105.5q0 157 277 157h25v18q0 76 -24 101q-27 28 -91 28q-66 0 -133 -38l-25 42q11 11 47 26q55 23 118 23q84 0 130 -46q26 -26 33 -64q5 -23 5 -74v-309zM341 82v162h-27q-213 0 -213 -109
q0 -39 25 -64q28 -28 81 -28q50 0 134 39zM389 618q-45 -45 -99 -45q-19 0 -55 11t-55 11q-30 0 -67 -23l-29 39q51 43 97 43q20 0 56 -11.5t54 -11.5q38 0 69 27z" />
    <glyph glyph-name="adieresis" unicode="&#xe4;" horiz-adv-x="464" 
d="M401 0h-55v36l-46 -24q-54 -22 -107 -22q-69 0 -111.5 40.5t-42.5 105.5q0 157 277 157h25v18q0 76 -24 101q-27 28 -91 28q-66 0 -133 -38l-25 42q11 11 47 26q55 23 118 23q84 0 130 -46q26 -26 33 -64q5 -23 5 -74v-309zM341 82v162h-27q-213 0 -213 -109
q0 -39 25 -64q28 -28 81 -28q50 0 134 39zM358 615q0 -19 -13 -32t-32 -13t-32 13t-13 32t13 32t32 13t32 -13t13 -32zM206 615q0 -19 -13 -32t-32 -13t-32 13t-13 32t13 32t32 13t32 -13t13 -32z" />
    <glyph glyph-name="aring" unicode="&#xe5;" horiz-adv-x="464" 
d="M401 0h-55v36l-46 -24q-54 -22 -107 -22q-69 0 -111.5 40.5t-42.5 105.5q0 157 277 157h25v18q0 76 -24 101q-27 28 -91 28q-66 0 -133 -38l-25 42q11 11 47 26q55 23 118 23q84 0 130 -46q26 -26 33 -64q5 -23 5 -74v-309zM341 82v162h-27q-213 0 -213 -109
q0 -39 25 -64q28 -28 81 -28q50 0 134 39zM330 631q0 -40 -28.5 -69t-69.5 -29q-40 0 -69 29t-29 69q0 41 29 69.5t69 28.5q41 0 69.5 -29t28.5 -69zM289 631q0 24 -16.5 40.5t-40.5 16.5q-23 0 -39.5 -17t-16.5 -40t16.5 -39.5t39.5 -16.5q24 0 40.5 16.5t16.5 39.5z" />
    <glyph glyph-name="ae" unicode="&#xe6;" horiz-adv-x="792" 
d="M749 260q0 -2 -1 -14t-1 -18h-344q0 -82 43 -132t122 -50q61 0 139 39l27 -46q-6 -8 -49 -26q-60 -23 -122 -23q-101 0 -160 64q-81 -63 -192 -63q-76 0 -122 37.5t-46 100.5q0 153 270 153h32v29q0 76 -24 101q-27 28 -91 28q-66 0 -133 -38l-25 42q11 11 47 26
q55 23 118 23q84 0 130 -46q16 -16 25 -37q56 82 168 82q85 0 136 -60q53 -63 53 -172zM688 279q0 63 -28 108q-35 54 -99 54t-108 -44t-48 -118h283zM373 94q-28 54 -28 125v12h-34q-206 0 -206 -102q0 -38 31 -60.5t78 -22.5q96 0 159 48z" />
    <glyph glyph-name="ccedilla" unicode="&#xe7;" horiz-adv-x="464" 
d="M434 38q-8 -10 -49 -26q-57 -22 -114 -22l-8 -43q7 5 25 5q37 0 59.5 -23t22.5 -60q0 -40 -28.5 -63.5t-66.5 -23.5q-46 0 -69 20l16 36q19 -12 48 -12q49 0 49 41t-42 41q-21 0 -40 -14l-26 17l17 82q-79 13 -128 70q-57 64 -57 167q0 116 66.5 189t172.5 73
q54 0 103 -22q31 -14 42 -25l-27 -42q-58 35 -121 35q-77 0 -125.5 -56.5t-48.5 -142.5q0 -87 47 -140t121 -53q61 0 135 37z" />
    <glyph glyph-name="egrave" unicode="&#xe8;" horiz-adv-x="494" 
d="M368 585l-20 -39l-214 80l27 59zM451 260q0 -2 -1 -14t-1 -18h-344q0 -82 43 -132t122 -50q61 0 139 39l27 -46q-6 -8 -49 -26q-60 -23 -122 -23q-103 0 -162.5 68t-59.5 179q0 116 59.5 185.5t159.5 69.5q85 0 136 -60q53 -63 53 -172zM390 279q0 63 -28 108
q-35 54 -99 54t-108 -44t-48 -118h283z" />
    <glyph glyph-name="eacute" unicode="&#xe9;" horiz-adv-x="494" 
d="M376 626l-214 -80l-20 39l207 100zM451 260q0 -2 -1 -14t-1 -18h-344q0 -82 43 -132t122 -50q61 0 139 39l27 -46q-6 -8 -49 -26q-60 -23 -122 -23q-103 0 -162.5 68t-59.5 179q0 116 59.5 185.5t159.5 69.5q85 0 136 -60q53 -63 53 -172zM390 279q0 63 -28 108
q-35 54 -99 54t-108 -44t-48 -118h283z" />
    <glyph glyph-name="ecircumflex" unicode="&#xea;" horiz-adv-x="494" 
d="M451 260q0 -2 -1 -14t-1 -18h-344q0 -82 43 -132t122 -50q61 0 139 39l27 -46q-6 -8 -49 -26q-60 -23 -122 -23q-103 0 -162.5 68t-59.5 179q0 116 59.5 185.5t159.5 69.5q85 0 136 -60q53 -63 53 -172zM390 279q0 63 -28 108q-35 54 -99 54t-108 -44t-48 -118h283z
M409 586l-26 -39l-126 69l-126 -69l-28 39l154 99z" />
    <glyph glyph-name="edieresis" unicode="&#xeb;" horiz-adv-x="494" 
d="M451 260q0 -2 -1 -14t-1 -18h-344q0 -82 43 -132t122 -50q61 0 139 39l27 -46q-6 -8 -49 -26q-60 -23 -122 -23q-103 0 -162.5 68t-59.5 179q0 116 59.5 185.5t159.5 69.5q85 0 136 -60q53 -63 53 -172zM390 279q0 63 -28 108q-35 54 -99 54t-108 -44t-48 -118h283z
M379 615q0 -19 -13 -32t-32 -13t-32 13t-13 32t13 32t32 13t32 -13t13 -32zM227 615q0 -19 -13 -32t-32 -13t-32 13t-13 32t13 32t32 13t32 -13t13 -32z" />
    <glyph glyph-name="igrave" unicode="&#xec;" horiz-adv-x="200" 
d="M130 0h-60v480h60v-480zM218 585l-20 -39l-214 80l27 59z" />
    <glyph glyph-name="iacute" unicode="&#xed;" horiz-adv-x="200" 
d="M217 626l-214 -80l-20 39l207 100zM130 0h-60v480h60v-480z" />
    <glyph glyph-name="icircumflex" unicode="&#xee;" horiz-adv-x="200" 
d="M130 0h-60v480h60v-480zM255 586l-26 -39l-126 69l-126 -69l-28 39l154 99z" />
    <glyph glyph-name="idieresis" unicode="&#xef;" horiz-adv-x="200" 
d="M130 0h-60v480h60v-480zM222 615q0 -19 -13 -32t-32 -13t-32 13t-13 32t13 32t32 13t32 -13t13 -32zM70 615q0 -19 -13 -32t-32 -13t-32 13t-13 32t13 32t32 13t32 -13t13 -32z" />
    <glyph glyph-name="eth" unicode="&#xf0;" horiz-adv-x="506" 
d="M463 328q0 -156 -56.5 -246.5t-154.5 -94.5q-91 -3 -148 65.5t-61 184.5q-4 113 49 182t147 72q71 2 152 -47q-11 108 -89 176l-123 -60l-25 45l97 47q-66 36 -173 40l4 52q144 -4 235 -60l93 45l25 -45l-74 -36q102 -96 102 -320zM399 319q0 19 -2 57q-30 27 -73.5 43.5
t-81.5 15.5q-65 -2 -102 -56t-34 -143t42.5 -141.5t101.5 -50.5q70 2 109.5 75t39.5 200z" />
    <glyph glyph-name="ntilde" unicode="&#xf1;" horiz-adv-x="503" 
d="M440 0h-60v280q0 57 -3 78q-6 35 -25 54q-27 27 -75 27q-45 0 -99 -23q-40 -16 -48 -24v-392h-60v480h57v-35q75 47 158 47q71 0 111 -40q30 -30 39 -76q5 -26 5 -87v-289zM407 618q-45 -45 -99 -45q-19 0 -55 11t-55 11q-30 0 -67 -23l-29 39q51 43 97 43q20 0 56 -11.5
t54 -11.5q38 0 69 27z" />
    <glyph glyph-name="ograve" unicode="&#xf2;" horiz-adv-x="523" 
d="M373 585l-20 -39l-214 80l27 59zM480 236q0 -113 -59.5 -180.5t-160.5 -67.5q-98 0 -157.5 68.5t-59.5 183.5t59.5 183.5t162.5 68.5q98 0 156.5 -68.5t58.5 -187.5zM418 238q0 89 -44.5 145.5t-112.5 56.5q-71 0 -113.5 -54t-42.5 -144t44.5 -145.5t112.5 -55.5
q73 0 114.5 53t41.5 144z" />
    <glyph glyph-name="oacute" unicode="&#xf3;" horiz-adv-x="523" 
d="M381 626l-214 -80l-20 39l207 100zM480 236q0 -113 -59.5 -180.5t-160.5 -67.5q-98 0 -157.5 68.5t-59.5 183.5t59.5 183.5t162.5 68.5q98 0 156.5 -68.5t58.5 -187.5zM418 238q0 89 -44.5 145.5t-112.5 56.5q-71 0 -113.5 -54t-42.5 -144t44.5 -145.5t112.5 -55.5
q73 0 114.5 53t41.5 144z" />
    <glyph glyph-name="ocircumflex" unicode="&#xf4;" horiz-adv-x="523" 
d="M480 236q0 -113 -59.5 -180.5t-160.5 -67.5q-98 0 -157.5 68.5t-59.5 183.5t59.5 183.5t162.5 68.5q98 0 156.5 -68.5t58.5 -187.5zM418 238q0 89 -44.5 145.5t-112.5 56.5q-71 0 -113.5 -54t-42.5 -144t44.5 -145.5t112.5 -55.5q73 0 114.5 53t41.5 144zM416 586
l-26 -39l-126 69l-126 -69l-28 39l154 99z" />
    <glyph glyph-name="otilde" unicode="&#xf5;" horiz-adv-x="523" 
d="M480 236q0 -113 -59.5 -180.5t-160.5 -67.5q-98 0 -157.5 68.5t-59.5 183.5t59.5 183.5t162.5 68.5q98 0 156.5 -68.5t58.5 -187.5zM418 238q0 89 -44.5 145.5t-112.5 56.5q-71 0 -113.5 -54t-42.5 -144t44.5 -145.5t112.5 -55.5q73 0 114.5 53t41.5 144zM416 618
q-45 -45 -99 -45q-19 0 -55 11t-55 11q-30 0 -67 -23l-29 39q51 43 97 43q20 0 56 -11.5t54 -11.5q38 0 69 27z" />
    <glyph glyph-name="odieresis" unicode="&#xf6;" horiz-adv-x="523" 
d="M480 236q0 -113 -59.5 -180.5t-160.5 -67.5q-98 0 -157.5 68.5t-59.5 183.5t59.5 183.5t162.5 68.5q98 0 156.5 -68.5t58.5 -187.5zM418 238q0 89 -44.5 145.5t-112.5 56.5q-71 0 -113.5 -54t-42.5 -144t44.5 -145.5t112.5 -55.5q73 0 114.5 53t41.5 144zM381 615
q0 -19 -13 -32t-32 -13t-32 13t-13 32t13 32t32 13t32 -13t13 -32zM229 615q0 -19 -13 -32t-32 -13t-32 13t-13 32t13 32t32 13t32 -13t13 -32z" />
    <glyph glyph-name="divide" unicode="&#xf7;" 
d="M342 464q0 -19 -13 -32t-32 -13t-32.5 13t-13.5 32t13 32t32 13t32.5 -13t13.5 -32zM534 227h-475v53h475v-53zM342 45q0 -19 -13 -32t-32 -13t-32.5 13t-13.5 32t13 32t32 13t32.5 -13t13.5 -32z" />
    <glyph glyph-name="oslash" unicode="&#xf8;" horiz-adv-x="523" 
d="M480 236q0 -113 -59.5 -180.5t-160.5 -67.5q-52 0 -94 21l-36 -61l-45 26l37 63q-79 69 -79 203q0 115 60 183.5t162 68.5q38 0 73 -12q28 -9 33 -16l38 63l44 -27l-40 -68q67 -67 67 -196zM418 238q0 86 -38 136l-185 -316q30 -17 67 -17q74 0 115 53t41 144zM342 413
q-31 27 -81 27q-72 0 -114 -54t-42 -144q0 -91 49 -151z" />
    <glyph glyph-name="ugrave" unicode="&#xf9;" horiz-adv-x="503" 
d="M354 585l-20 -39l-214 80l27 59zM433 0h-55v38q-72 -48 -156 -48q-73 0 -116 43q-31 31 -40 84q-3 22 -3 89v274h60v-286q0 -94 28.5 -122.5t74.5 -28.5q45 0 97 22l50 25v390h60v-480z" />
    <glyph glyph-name="uacute" unicode="&#xfa;" horiz-adv-x="503" 
d="M366 626l-214 -80l-20 39l207 100zM433 0h-55v38q-72 -48 -156 -48q-73 0 -116 43q-31 31 -40 84q-3 22 -3 89v274h60v-286q0 -94 28.5 -122.5t74.5 -28.5q45 0 97 22l50 25v390h60v-480z" />
    <glyph glyph-name="ucircumflex" unicode="&#xfb;" horiz-adv-x="503" 
d="M433 0h-55v38q-72 -48 -156 -48q-73 0 -116 43q-31 31 -40 84q-3 22 -3 89v274h60v-286q0 -94 28.5 -122.5t74.5 -28.5q45 0 97 22l50 25v390h60v-480zM403 586l-26 -39l-126 69l-126 -69l-28 39l154 99z" />
    <glyph glyph-name="udieresis" unicode="&#xfc;" horiz-adv-x="503" 
d="M433 0h-55v38q-72 -48 -156 -48q-73 0 -116 43q-31 31 -40 84q-3 22 -3 89v274h60v-286q0 -94 28.5 -122.5t74.5 -28.5q45 0 97 22l50 25v390h60v-480zM371 615q0 -19 -13 -32t-32 -13t-32 13t-13 32t13 32t32 13t32 -13t13 -32zM219 615q0 -19 -13 -32t-32 -13t-32 13
t-13 32t13 32t32 13t32 -13t13 -32z" />
    <glyph glyph-name="yacute" unicode="&#xfd;" horiz-adv-x="483" 
d="M355 626l-214 -80l-20 39l207 100zM458 480l-190 -514q-38 -103 -83 -148t-119 -45q-35 0 -86 17l16 49q42 -12 68 -12q50 0 79.5 29.5t70.5 131.5l-198 492h66l165 -415l149 415h62z" />
    <glyph glyph-name="thorn" unicode="&#xfe;" horiz-adv-x="518" 
d="M475 250q0 -115 -66 -187.5t-170 -72.5q-66 0 -109 27v-230h-60v933h57v-273q60 45 138 45q94 0 152 -66.5t58 -175.5zM413 252q0 83 -43 135t-111 52q-73 0 -129 -47v-317q58 -32 110 -32q78 0 125.5 57.5t47.5 151.5z" />
    <glyph glyph-name="ydieresis" unicode="&#xff;" horiz-adv-x="483" 
d="M458 480l-190 -514q-38 -103 -83 -148t-119 -45q-35 0 -86 17l16 49q42 -12 68 -12q50 0 79.5 29.5t70.5 131.5l-198 492h66l165 -415l149 415h62zM366 615q0 -19 -13 -32t-32 -13t-32 13t-13 32t13 32t32 13t32 -13t13 -32zM214 615q0 -19 -13 -32t-32 -13t-32 13
t-13 32t13 32t32 13t32 -13t13 -32z" />
    <glyph glyph-name="glyph219" horiz-adv-x="508" 
 />
    <glyph glyph-name="Lslash" unicode="&#x141;" horiz-adv-x="495" 
d="M462 0h-351v288l-82 -62l-33 41l115 87v313h64v-276l121 90l32 -41l-153 -113v-271h287v-56z" />
    <glyph glyph-name="lslash" unicode="&#x142;" horiz-adv-x="289" 
d="M293 448l-123 -91v-357h-60v321l-82 -64l-32 40l114 86v337h60v-301l91 69z" />
    <glyph glyph-name="HT" horiz-adv-x="508" 
 />
    <glyph glyph-name="LF" horiz-adv-x="508" 
 />
    <glyph glyph-name="nonmarkingreturn" horiz-adv-x="508" 
 />
    <glyph glyph-name="Zcaron" unicode="&#x17d;" horiz-adv-x="543" 
d="M496 0h-450v47l368 566h-348v54h422v-49l-365 -562h373v-56zM415 816l-154 -99l-152 99l26 39l126 -69l126 69z" />
    <glyph glyph-name="zcaron" unicode="&#x17e;" horiz-adv-x="463" 
d="M383 646l-154 -99l-152 99l26 39l126 -69l126 69zM408 0h-366v47l282 382h-268v51h342v-48l-278 -379h288v-53z" />
    <glyph glyph-name="DLE" horiz-adv-x="508" 
 />
    <glyph glyph-name="DC1" horiz-adv-x="508" 
 />
    <glyph glyph-name="DC2" horiz-adv-x="1008" 
 />
    <glyph glyph-name="DC3" horiz-adv-x="508" 
 />
    <glyph glyph-name="DC4" horiz-adv-x="508" 
 />
    <glyph glyph-name="RS" horiz-adv-x="508" 
 />
    <glyph glyph-name="US" horiz-adv-x="508" 
 />
    <glyph glyph-name="DEL" horiz-adv-x="508" 
 />
    <glyph glyph-name="notequal" unicode="&#x2260;" 
d="M534 164h-259l-86 -135l-46 28l69 107h-153v53h185l45 73h-230v53h263l81 128l44 -28l-63 -100h150v-53h-183l-45 -73h228v-53z" />
    <glyph glyph-name="infinity" unicode="&#x221e;" horiz-adv-x="850" 
d="M756 276q0 -57 -41.5 -98.5t-99.5 -41.5q-78 0 -190 108q-112 -108 -190 -108q-58 0 -99.5 41.5t-41.5 98.5q0 59 40 100t98 41q92 0 193 -105q101 105 193 105q58 0 98 -41t40 -100zM706 282q0 36 -26 62t-65 26q-44 0 -86 -28q-25 -17 -72 -64q96 -89 158 -89
q37 0 64 27.5t27 65.5zM393 278q-46 47 -72 64q-42 28 -86 28q-39 0 -65 -26t-26 -62q0 -38 27 -65.5t64 -27.5q62 0 158 89z" />
    <glyph glyph-name="lessequal" unicode="&#x2264;" 
d="M533 146l-22 -48l-451 218v40l450 218l23 -48l-400 -191zM533 0h-473v53h473v-53z" />
    <glyph glyph-name="greaterequal" unicode="&#x2265;" 
d="M533 316l-451 -218l-22 48l400 189l-400 191l23 48l450 -218v-40zM533 0h-473v53h473v-53z" />
    <glyph glyph-name="partialdiff" unicode="&#x2202;" horiz-adv-x="611" 
d="M517 356q0 -173 -59.5 -271t-163.5 -98q-91 0 -145.5 70.5t-54.5 186.5q0 114 55 181t151 67q78 0 147 -52q-10 110 -62 172.5t-131 62.5q-51 0 -119 -34l-26 46q68 45 149 45q117 0 188 -101.5t71 -274.5zM452 346v25q-65 65 -155 65q-64 0 -102 -53t-38 -142t37.5 -143
t99.5 -54q74 0 116 80t42 222z" />
    <glyph glyph-name="summation" unicode="&#x2211;" horiz-adv-x="551" 
d="M457 0h-363v38l182 303l-182 283v43h363v-53h-284l170 -271l-177 -290h291v-53z" />
    <glyph glyph-name="product" unicode="&#x220f;" horiz-adv-x="807" 
d="M713 614h-76v-614h-66v614h-335v-614h-66v614h-76v53h619v-53z" />
    <glyph glyph-name="pi" unicode="&#x3c0;" horiz-adv-x="669" 
d="M575 4q-24 -7 -48 -7q-41 0 -68 27t-27 119v284h-206v-427h-60v427h-72v53h474v-53h-76v-273q0 -75 14.5 -89.5t35.5 -14.5q17 0 33 2v-48z" />
    <glyph glyph-name="integral" unicode="&#x222b;" horiz-adv-x="628" 
d="M534 706l-21 -48q-45 18 -74 18q-43 0 -65 -22q-30 -30 -30 -100v-612q0 -86 -46 -132q-37 -37 -102 -37q-59 0 -102 26l21 48q45 -18 74 -18q43 0 65 22q30 30 30 100v612q0 86 46 132q37 37 102 37q59 0 102 -26z" />
    <glyph glyph-name="Omega" unicode="&#x3a9;" horiz-adv-x="820" 
d="M726 0h-244v53q160 65 160 287q0 128 -64.5 208t-167.5 80q-104 0 -168.5 -80t-64.5 -208q0 -222 161 -287v-53h-244v55h155q-139 85 -139 291q0 146 84 239.5t216 93.5q131 0 215 -93.5t84 -239.5q0 -208 -138 -291h155v-55z" />
    <glyph glyph-name="Omega" unicode="&#x2126;" horiz-adv-x="820" 
d="M726 0h-244v53q160 65 160 287q0 128 -64.5 208t-167.5 80q-104 0 -168.5 -80t-64.5 -208q0 -222 161 -287v-53h-244v55h155q-139 85 -139 291q0 146 84 239.5t216 93.5q131 0 215 -93.5t84 -239.5q0 -208 -138 -291h155v-55z" />
    <glyph glyph-name="radical" unicode="&#x221a;" horiz-adv-x="802" 
d="M708 712l-267 -712h-54l-158 410l-118 -40l-17 50l170 59l152 -396l238 649z" />
    <glyph glyph-name="approxequal" unicode="&#x2248;" 
d="M517 333q-53 -67 -117 -67q-40 0 -106 28.5t-97 28.5q-40 0 -75 -39l-46 31q49 67 122 67q41 0 105 -28.5t96 -28.5q36 0 73 41zM517 193q-53 -67 -117 -67q-40 0 -106 28.5t-97 28.5q-40 0 -75 -39l-46 31q49 67 122 67q41 0 105 -28.5t96 -28.5q36 0 73 41z" />
    <glyph glyph-name="approxequal" unicode="&#x22f2;" 
d="M517 333q-53 -67 -117 -67q-40 0 -106 28.5t-97 28.5q-40 0 -75 -39l-46 31q49 67 122 67q41 0 105 -28.5t96 -28.5q36 0 73 41zM517 193q-53 -67 -117 -67q-40 0 -106 28.5t-97 28.5q-40 0 -75 -39l-46 31q49 67 122 67q41 0 105 -28.5t96 -28.5q36 0 73 41z" />
    <glyph glyph-name="Delta" unicode="&#x394;" horiz-adv-x="701" 
d="M607 0h-513l233 667h50zM527 53l-176 515l-179 -515h355z" />
    <glyph glyph-name="Delta" unicode="&#x2206;" horiz-adv-x="701" 
d="M607 0h-513l233 667h50zM527 53l-176 515l-179 -515h355z" />
    <glyph glyph-name="lozenge" unicode="&#x25ca;" horiz-adv-x="666" 
d="M572 336l-215 -336h-48l-215 336l215 331h46zM506 336l-174 264l-170 -264l172 -276z" />
    <glyph glyph-name="fraction" unicode="&#x2044;" 
d="M556 670l-476 -706l-43 29l476 708z" />
    <glyph glyph-name="fi" unicode="&#xf001;" horiz-adv-x="496" 
d="M426 0h-60v431h-198v-431h-60v431h-85v49h85v83q0 86 45 131q38 38 103 38q64 0 101 -31l-24 -42q-30 20 -71 20q-42 0 -66 -24q-28 -28 -28 -98v-77h258v-480z" />
    <glyph glyph-name="fl" unicode="&#xf002;" horiz-adv-x="496" 
d="M426 0h-60v431h-198v-431h-60v431h-85v49h85v83q0 86 45 131q38 38 103 38q47 0 77 -18l-19 -46q-27 11 -53 11q-41 0 -65 -24q-28 -28 -28 -98v-77h198v240h60v-720z" />
    <glyph glyph-name="apple" unicode="&#xf000;" horiz-adv-x="908" 
d="M860 388q0 -167 -117.5 -284.5t-288.5 -117.5q-170 0 -288 117.5t-118 284.5q0 168 118.5 285.5t287.5 117.5q171 0 288.5 -118t117.5 -285zM795 388q0 139 -100 240t-241 101q-140 0 -241 -100.5t-101 -239.5q0 -125 83 -219q72 -82 175 -109v252h-85v49h85v87
q0 92 45 137q38 38 103 38q64 0 101 -31l-24 -42q-30 20 -71 20q-42 0 -66 -24q-28 -28 -28 -98v-87h154v-49h-154v-262q12 -2 24 -2q140 0 240.5 100.5t100.5 238.5z" />
    <glyph glyph-name="dotlessi" unicode="&#x131;" horiz-adv-x="200" 
d="M130 0h-60v480h60v-480z" />
    <glyph glyph-name="breve" unicode="&#x2d8;" horiz-adv-x="340" 
d="M303 677q-6 -58 -41.5 -91t-91.5 -33t-91.5 33t-41.5 91h51q11 -63 82 -63q72 0 82 63h51z" />
    <glyph glyph-name="dotaccent" unicode="&#x2d9;" horiz-adv-x="164" 
d="M127 615q0 -19 -13 -32t-32 -13t-32 13t-13 32t13 32t32 13t32 -13t13 -32z" />
    <glyph glyph-name="ring" unicode="&#x2da;" horiz-adv-x="271" 
d="M233 631q0 -40 -28.5 -69t-69.5 -29q-40 0 -69 29t-29 69q0 41 29 69.5t69 28.5q41 0 69.5 -29t28.5 -69zM192 631q0 24 -16.5 40.5t-40.5 16.5q-23 0 -39.5 -17t-16.5 -40t16.5 -39.5t39.5 -16.5q24 0 40.5 16.5t16.5 39.5z" />
    <glyph glyph-name="hungarumlaut" unicode="&#x2dd;" horiz-adv-x="320" 
d="M283 675l-69 -168l-48 17l53 176zM154 675l-68 -168l-49 17l53 176z" />
    <glyph glyph-name="ogonek" unicode="&#x2db;" horiz-adv-x="273" 
d="M236 -189q-43 -29 -98 -29q-46 0 -73.5 28.5t-27.5 77.5q0 61 61 103l49 -15q-35 -28 -42 -35q-20 -23 -20 -53q0 -62 62 -62q19 0 72 20z" />
    <glyph glyph-name="caron" unicode="&#x2c7;" horiz-adv-x="380" 
d="M343 646l-154 -99l-152 99l26 39l126 -69l126 69z" />
    <glyph glyph-name="summmation" horiz-adv-x="341" 
 />
    <glyph glyph-name="glyph261" horiz-adv-x="236" 
 />
    <glyph glyph-name=".null" horiz-adv-x="0" 
 />
    </font>
</defs>
</svg>
